<?xml version="1.0" encoding="UTF-8" standalone="no"?>
<!-- Created with Inkscape (http://www.inkscape.org/) -->

<svg
   xmlns:dc="http://purl.org/dc/elements/1.1/"
   xmlns:cc="http://creativecommons.org/ns#"
   xmlns:rdf="http://www.w3.org/1999/02/22-rdf-syntax-ns#"
   xmlns:svg="http://www.w3.org/2000/svg"
   xmlns="http://www.w3.org/2000/svg"
   xmlns:sodipodi="http://sodipodi.sourceforge.net/DTD/sodipodi-0.dtd"
   xmlns:inkscape="http://www.inkscape.org/namespaces/inkscape"
   width="744.09448819"
   height="1052.3622047"
   id="svg2"
   version="1.1"
   inkscape:version="0.48.4 r9939"
   sodipodi:docname="proc_grid.svg"
   inkscape:export-filename="/home/dylan/GitRepos/PCSE2016-dmp942/project/documentation/figs/proc_grid.png"
   inkscape:export-xdpi="90"
   inkscape:export-ydpi="90">
  <defs
     id="defs4" />
  <sodipodi:namedview
     id="base"
     pagecolor="#ffffff"
     bordercolor="#666666"
     borderopacity="1.0"
     inkscape:pageopacity="0.0"
     inkscape:pageshadow="2"
     inkscape:zoom="1.4"
     inkscape:cx="246.11402"
     inkscape:cy="616.33733"
     inkscape:document-units="px"
     inkscape:current-layer="layer1"
     showgrid="false"
     inkscape:window-width="1855"
     inkscape:window-height="1028"
     inkscape:window-x="65"
     inkscape:window-y="24"
     inkscape:window-maximized="0" />
  <metadata
     id="metadata7">
    <rdf:RDF>
      <cc:Work
         rdf:about="">
        <dc:format>image/svg+xml</dc:format>
        <dc:type
           rdf:resource="http://purl.org/dc/dcmitype/StillImage" />
        <dc:title></dc:title>
      </cc:Work>
    </rdf:RDF>
  </metadata>
  <g
     inkscape:label="Layer 1"
     inkscape:groupmode="layer"
     id="layer1">
    <rect
       style="fill:none;fill-rule:evenodd;stroke:#000000;stroke-width:1px;stroke-linecap:butt;stroke-linejoin:miter;stroke-opacity:1"
       id="rect2985"
       width="324.28571"
       height="277.14285"
       x="117.14286"
       y="363.79074" />
    <path
       style="fill:none;stroke:#000000;stroke-width:1px;stroke-linecap:butt;stroke-linejoin:miter;stroke-opacity:1"
       d="M 440.71429,363.07647 585,282.36218"
       id="path3755"
       inkscape:connector-curvature="0" />
    <path
       style="fill:none;stroke:#000000;stroke-width:1px;stroke-linecap:butt;stroke-linejoin:miter;stroke-opacity:1"
       d="M 441.42857,640.57647 585.71428,559.86218"
       id="path3755-2"
       inkscape:connector-curvature="0" />
    <path
       style="fill:none;stroke:#000000;stroke-width:1px;stroke-linecap:butt;stroke-linejoin:miter;stroke-opacity:1"
       d="M 116.42858,363.43361 260.71429,282.71932"
       id="path3755-7"
       inkscape:connector-curvature="0" />
    <path
       style="fill:none;stroke:#000000;stroke-width:1px;stroke-linecap:butt;stroke-linejoin:miter;stroke-opacity:1"
       d="m 584.28571,281.6479 1.42858,279.28571"
       id="path3782"
       inkscape:connector-curvature="0" />
    <path
       style="fill:none;stroke:#000000;stroke-width:1px;stroke-linecap:butt;stroke-linejoin:miter;stroke-opacity:1"
       d="m 583.57143,282.36218 -323.57143,0"
       id="path3802"
       inkscape:connector-curvature="0" />
    <path
       style="fill:none;stroke:#000000;stroke-width:1px;stroke-linecap:butt;stroke-linejoin:miter;stroke-opacity:1"
       d="M 224.28571,364.50504 225,640.93361"
       id="path3804"
       inkscape:connector-curvature="0" />
    <path
       style="fill:none;stroke:#000000;stroke-width:1px;stroke-linecap:butt;stroke-linejoin:miter;stroke-opacity:1"
       d="m 335.35714,364.1479 0.71429,276.42857"
       id="path3804-1"
       inkscape:connector-curvature="0" />
    <path
       style="fill:none;stroke:#000000;stroke-width:1px;stroke-linecap:butt;stroke-linejoin:miter;stroke-opacity:1"
       d="m 511.07143,324.1479 0.71429,276.42857"
       id="path3804-1-6"
       inkscape:connector-curvature="0" />
    <path
       style="fill:none;stroke:#000000;stroke-width:1px;stroke-linecap:butt;stroke-linejoin:miter;stroke-opacity:1"
       d="m 509.64286,323.79075 -323.57143,0"
       id="path3802-3"
       inkscape:connector-curvature="0" />
    <path
       style="fill:none;stroke:#000000;stroke-width:1px;stroke-linecap:butt;stroke-linejoin:miter;stroke-opacity:1"
       d="M 223.57143,363.43361 367.85714,282.71932"
       id="path3755-7-0"
       inkscape:connector-curvature="0" />
    <path
       style="fill:none;stroke:#000000;stroke-width:1px;stroke-linecap:butt;stroke-linejoin:miter;stroke-opacity:1"
       d="M 335.71429,363.43361 480,282.71932"
       id="path3755-7-1"
       inkscape:connector-curvature="0" />
    <path
       style="fill:none;stroke:#000000;stroke-width:1px;stroke-linecap:butt;stroke-linejoin:miter;stroke-opacity:1"
       d="M 440.71429,499.86219 585,419.1479"
       id="path3755-2-7"
       inkscape:connector-curvature="0" />
    <path
       style="fill:none;stroke:#000000;stroke-width:1px;stroke-linecap:butt;stroke-linejoin:miter;stroke-opacity:1"
       d="m 441.42857,499.50504 -325,-0.71429"
       id="path3903"
       inkscape:connector-curvature="0" />
    <path
       style="fill:none"
       d="m 225.82831,569.73914 0,-70 44.88706,0 c 24.68788,0 49.27717,0.21055 54.64286,0.46788 l 9.75579,0.46788 0,69.53212 0,69.53212 -54.64286,0 -54.64285,0 0,-70 z"
       id="path3905"
       inkscape:connector-curvature="0" />
    <path
       style="fill:none"
       d="m 225.82831,569.73914 0,-70 44.88706,0 c 24.68788,0 49.27717,0.21055 54.64286,0.46788 l 9.75579,0.46788 0,69.53212 0,69.53212 -54.64286,0 -54.64285,0 0,-70 z"
       id="path3907"
       inkscape:connector-curvature="0" />
    <path
       style="fill:none"
       d="m 225.82831,569.73914 0,-70 44.88706,0 c 24.68788,0 49.27717,0.21055 54.64286,0.46788 l 9.75579,0.46788 0,69.53212 0,69.53212 -54.64286,0 -54.64285,0 0,-70 z"
       id="path3909"
       inkscape:connector-curvature="0" />
    <path
       style="fill:none"
       d="m 225.56423,496.70343 c -0.23689,-0.88393 -0.43509,-30.9375 -0.44046,-66.78572 l -0.01,-65.17857 54.64286,0 54.64286,0 0,42.02615 c 0,23.11438 0.21277,53.16795 0.47281,66.78572 l 0.47282,24.75956 -54.67522,0 -54.67523,0 -0.43069,-1.60714 z"
       id="path3911"
       inkscape:connector-curvature="0" />
    <path
       style="fill:none"
       d="m 442.43181,430.34404 0.18221,-67.25225 33.57143,-18.79286 c 18.46429,-10.33607 33.62499,-18.56363 33.69044,-18.28347 0.0655,0.28017 0.27943,30.46349 0.47549,67.07405 l 0.35647,66.56465 -33.91256,18.97106 c -18.65191,10.43409 -34.05502,18.97107 -34.22913,18.97107 -0.17411,0 -0.23457,-30.26352 -0.13435,-67.25225 z"
       id="path3913"
       inkscape:connector-curvature="0" />
    <path
       style="fill:#808080"
       d="m 442.25688,569.57602 0,-69.53157 30.89286,-17.25623 c 16.99107,-9.49093 32.41964,-18.10497 34.28571,-19.1423 l 3.39286,-1.88605 -0.0158,69.52535 -0.0158,69.52535 -29.80564,16.62277 c -16.3931,9.14252 -31.81456,17.75935 -34.26992,19.1485 l -4.46428,2.52575 0,-69.53157 z"
       id="path3915"
       inkscape:connector-curvature="0" />
    <path
       style="fill:#808080"
       d="m 337.00149,635.34865 c -0.25239,-2.41477 -0.4589,-33.75406 -0.4589,-69.64286 l 0,-65.25236 52.14286,0 52.14286,0 0,69.64286 0,69.64285 -51.68396,0 -51.68396,0 -0.4589,-4.39049 0,0 z"
       id="path3917"
       inkscape:connector-curvature="0" />
    <path
       style="fill:#808080"
       d="m 225.56423,496.70343 c -0.23689,-0.88393 -0.43509,-30.9375 -0.44046,-66.78572 l -0.01,-65.17857 54.64286,0 54.64286,0 0,42.02615 c 0,23.11438 0.21277,53.16795 0.47281,66.78572 l 0.47282,24.75956 -54.67522,0 -54.67523,0 -0.43069,-1.60714 z"
       id="path3919"
       inkscape:connector-curvature="0" />
    <path
       style="fill:#808080"
       d="m 260.80936,343.66326 33.86709,-18.93303 53.84534,0.18303 53.84532,0.18303 -33.52477,18.75 -33.52476,18.75 -54.18766,0 -54.18765,0 33.86709,-18.93303 z"
       id="path3921"
       inkscape:connector-curvature="0" />
    <path
       style="fill:#808080"
       d="m 192.64974,321.99254 c 0.37321,-0.33206 16.03361,-9.17346 34.80089,-19.64755 l 34.12233,-19.0438 51.35458,0.18326 51.35457,0.18326 -34.81016,19.46429 -34.81016,19.46429 -51.34531,0 c -28.23992,0 -51.03996,-0.27169 -50.66674,-0.60375 z"
       id="path3923"
       inkscape:connector-curvature="0" />
    <path
       style="fill:#808080"
       d="m 460.85786,322.59629 -49.61331,-0.35715 34.81323,-19.4691 34.81323,-19.4691 49.95935,0.18339 49.95935,0.18338 -18.7307,10.47456 c -10.30189,5.761 -26.12356,14.60029 -35.15927,19.64285 l -16.42858,9.16831 -49.6133,-0.35714 z"
       id="path3925"
       inkscape:connector-curvature="0" />
    <path
       style="fill:#808080"
       d="m 512.43181,391.11123 0.18221,-67.19934 35.53572,-19.87288 35.53571,-19.87287 0.16429,59.21507 c 0.0904,32.56829 0.17071,62.82075 0.17857,67.22768 l 0.0143,8.01261 -35.35714,19.81771 c -19.44643,10.89975 -35.59985,19.82979 -35.8965,19.84454 -0.29665,0.0148 -0.45736,-30.21289 -0.35714,-67.17252 l 0,0 z"
       id="path3927"
       inkscape:connector-curvature="0" />
    <path
       style="fill:#808080"
       d="m 117.97116,569.73914 0,-70 52.85715,0 52.85714,0 0,43.09739 c 0,23.70356 0.21289,55.20356 0.47308,70 l 0.47308,26.90261 -53.33022,0 -53.33023,0 0,-70 z"
       id="path3929"
       inkscape:connector-curvature="0" />
    <text
       xml:space="preserve"
       style="font-size:40px;font-style:normal;font-weight:normal;line-height:125%;letter-spacing:0px;word-spacing:0px;fill:#000000;fill-opacity:1;stroke:none;font-family:Sans"
       x="155.71428"
       y="579.505"
       id="text3931"
       sodipodi:linespacing="125%"><tspan
         sodipodi:role="line"
         id="tspan3933"
         x="155.71428"
         y="579.505">0</tspan></text>
    <text
       xml:space="preserve"
       style="font-size:40px;font-style:normal;font-weight:normal;line-height:125%;letter-spacing:0px;word-spacing:0px;fill:#000000;fill-opacity:1;stroke:none;font-family:Sans"
       x="266.57086"
       y="579.06561"
       id="text3931-2"
       sodipodi:linespacing="125%"><tspan
         sodipodi:role="line"
         id="tspan3933-2"
         x="266.57086"
         y="579.06561">1</tspan></text>
    <text
       xml:space="preserve"
       style="font-size:40px;font-style:normal;font-weight:normal;line-height:125%;letter-spacing:0px;word-spacing:0px;fill:#000000;fill-opacity:1;stroke:none;font-family:Sans"
       x="380"
       y="578.07648"
       id="text3956"
       sodipodi:linespacing="125%"><tspan
         sodipodi:role="line"
         id="tspan3958"
         x="380"
         y="578.07648">2</tspan></text>
    <text
       xml:space="preserve"
       style="font-size:40px;font-style:normal;font-weight:normal;line-height:125%;letter-spacing:0px;word-spacing:0px;fill:#000000;fill-opacity:1;stroke:none;font-family:Sans"
       x="159.99998"
       y="443.79077"
       id="text3960"
       sodipodi:linespacing="125%"><tspan
         sodipodi:role="line"
         id="tspan3962"
         x="159.99998"
         y="443.79077">3</tspan></text>
    <text
       xml:space="preserve"
       style="font-size:40px;font-style:normal;font-weight:normal;line-height:125%;letter-spacing:0px;word-spacing:0px;fill:#000000;fill-opacity:1;stroke:none;font-family:Sans"
       x="272.85715"
       y="441.64792"
       id="text3964"
       sodipodi:linespacing="125%"><tspan
         sodipodi:role="line"
         id="tspan3966"
         x="272.85715"
         y="441.64792">4</tspan></text>
    <text
       xml:space="preserve"
       style="font-size:40px;font-style:normal;font-weight:normal;line-height:125%;letter-spacing:0px;word-spacing:0px;fill:#000000;fill-opacity:1;stroke:none;font-family:Sans"
       x="377.85715"
       y="443.07648"
       id="text3968"
       sodipodi:linespacing="125%"><tspan
         sodipodi:role="line"
         id="tspan3970"
         x="377.85715"
         y="443.07648">5</tspan></text>
    <text
       xml:space="preserve"
       style="font-size:31.02841949px;font-style:normal;font-weight:normal;line-height:125%;letter-spacing:0px;word-spacing:0px;fill:#000000;fill-opacity:1;stroke:none;font-family:Sans"
       x="600.33386"
       y="365.87296"
       id="text3972"
       sodipodi:linespacing="125%"
       transform="matrix(0.80926959,-0.04752565,-0.05564826,1.2389502,0,0)"><tspan
         sodipodi:role="line"
         id="tspan3974"
         x="600.33386"
         y="365.87296">5</tspan></text>
    <text
       xml:space="preserve"
       style="font-size:35.55407715px;font-style:normal;font-weight:normal;line-height:125%;letter-spacing:0px;word-spacing:0px;fill:#000000;fill-opacity:1;stroke:none;font-family:Sans"
       x="517.05066"
       y="543.42511"
       id="text3976"
       sodipodi:linespacing="125%"
       transform="matrix(0.89121468,-0.09392755,0.01269252,1.1207264,0,0)"><tspan
         sodipodi:role="line"
         id="tspan3978"
         x="517.05066"
         y="543.42511">2</tspan></text>
    <text
       xml:space="preserve"
       style="font-size:32.95018005px;font-style:normal;font-weight:normal;line-height:125%;letter-spacing:0px;word-spacing:0px;fill:#000000;fill-opacity:1;stroke:none;font-family:Sans"
       x="649.39478"
       y="438.56693"
       id="text3980"
       sodipodi:linespacing="125%"
       transform="matrix(0.82365264,-0.01295003,0.01908426,1.213804,0,0)"><tspan
         sodipodi:role="line"
         id="tspan3982"
         x="649.39478"
         y="438.56693">8</tspan></text>
    <text
       xml:space="preserve"
       style="font-size:27.40816116px;font-style:normal;font-weight:normal;line-height:125%;letter-spacing:0px;word-spacing:0px;fill:#000000;fill-opacity:1;stroke:none;font-family:Sans"
       x="444.96735"
       y="434.45587"
       id="text3984"
       sodipodi:linespacing="125%"
       transform="matrix(1.3931888,-0.00584298,-0.8339533,0.72127539,0,0)"
       inkscape:transform-center-x="-5"
       inkscape:transform-center-y="11.428571"><tspan
         sodipodi:role="line"
         id="tspan3986"
         x="444.96735"
         y="434.45587">9</tspan></text>
    <text
       xml:space="preserve"
       style="font-size:22.95994759px;font-style:normal;font-weight:normal;line-height:125%;letter-spacing:0px;word-spacing:0px;fill:#000000;fill-opacity:1;stroke:none;font-family:Sans"
       x="481.67526"
       y="379.57904"
       id="text3988"
       sodipodi:linespacing="125%"
       transform="matrix(1.3195928,0.07429762,-0.71273349,0.71768019,0,0)"><tspan
         sodipodi:role="line"
         id="tspan3990"
         x="481.67526"
         y="379.57904">10</tspan></text>
    <text
       xml:space="preserve"
       style="font-size:20.84485245px;font-style:normal;font-weight:normal;line-height:125%;letter-spacing:0px;word-spacing:0px;fill:#000000;fill-opacity:1;stroke:none;font-family:Sans"
       x="620.19061"
       y="292.44635"
       id="text3992"
       sodipodi:linespacing="125%"
       transform="matrix(1.1032363,0.09769592,-0.71477478,0.84312801,0,0)"
       inkscape:transform-center-y="12.857143"><tspan
         sodipodi:role="line"
         id="tspan3994"
         x="620.19061"
         y="292.44635">11</tspan></text>
    <text
       xml:space="preserve"
       style="font-size:28.82425117px;font-style:normal;font-weight:normal;line-height:125%;letter-spacing:0px;word-spacing:0px;fill:#000000;fill-opacity:1;stroke:none;font-family:Sans"
       x="621.40442"
       y="423.34583"
       id="text3996"
       sodipodi:linespacing="125%"
       transform="matrix(0.81390529,-0.19918751,0.06898481,1.2117615,0,0)"><tspan
         sodipodi:role="line"
         id="tspan3998"
         x="621.40442"
         y="423.34583">11</tspan></text>
    <text
       xml:space="preserve"
       style="font-size:34.83065414px;font-style:normal;font-weight:normal;line-height:125%;letter-spacing:0px;word-spacing:0px;fill:#000000;fill-opacity:1;stroke:none;font-family:Sans"
       x="228.33009"
       y="534.82324"
       id="text3960-6"
       sodipodi:linespacing="125%"
       transform="matrix(1.5877553,0.09941394,-0.33655662,0.60874719,0,0)"><tspan
         sodipodi:role="line"
         id="tspan3962-5"
         x="228.33009"
         y="534.82324">3</tspan></text>
    <text
       xml:space="preserve"
       style="font-size:32.72767639px;font-style:normal;font-weight:normal;line-height:125%;letter-spacing:0px;word-spacing:0px;fill:#000000;fill-opacity:1;stroke:none;font-family:Sans"
       x="464.74765"
       y="461.43134"
       id="text3964-1"
       sodipodi:linespacing="125%"
       transform="matrix(1.3154236,0.005731,-0.69573573,0.75718021,0,0)"><tspan
         sodipodi:role="line"
         id="tspan3966-5"
         x="464.74765"
         y="461.43134">4</tspan></text>
    <text
       xml:space="preserve"
       style="font-size:32.55526733px;font-style:normal;font-weight:normal;line-height:125%;letter-spacing:0px;word-spacing:0px;fill:#000000;fill-opacity:1;stroke:none;font-family:Sans"
       x="540.35883"
       y="399.89877"
       id="text3968-8"
       sodipodi:linespacing="125%"
       transform="matrix(1.2603901,0.10431449,-0.69718596,0.73570349,0,0)"><tspan
         sodipodi:role="line"
         id="tspan3970-3"
         x="540.35883"
         y="399.89877">5</tspan></text>
    <path
       style="fill:none;stroke:#000000;stroke-width:1px;stroke-linecap:butt;stroke-linejoin:miter;stroke-opacity:1"
       d="m 61.428571,604.50504 -2.142857,69.28571 77.857146,0.71429"
       id="path4063"
       inkscape:connector-curvature="0" />
    <path
       style="fill:none;stroke:#000000;stroke-width:1px;stroke-linecap:butt;stroke-linejoin:miter;stroke-opacity:1"
       d="M 58.571429,674.36218 20.714286,710.79075"
       id="path4065"
       inkscape:connector-curvature="0" />
    <text
       xml:space="preserve"
       style="line-height:125%"
       x="139.28571"
       y="680.93359"
       id="text4067"
       sodipodi:linespacing="125%"><tspan
         sodipodi:role="line"
         id="tspan4069"
         x="139.28571"
         y="680.93359"
         style="font-size:20px;font-style:normal;font-variant:normal;font-weight:normal;font-stretch:normal;line-height:125%;font-family:Symbol;-inkscape-font-specification:Symbol">x</tspan></text>
    <text
       xml:space="preserve"
       style="font-size:40px;font-style:normal;font-weight:normal;line-height:125%;letter-spacing:0px;word-spacing:0px;fill:#000000;fill-opacity:1;stroke:none;font-family:Sans"
       x="55.714287"
       y="595.21936"
       id="text4071"
       sodipodi:linespacing="125%"><tspan
         sodipodi:role="line"
         id="tspan4073"
         x="55.714287"
         y="595.21936"
         style="font-size:20px;font-style:normal;font-variant:normal;font-weight:normal;font-stretch:normal;font-family:Symbol;-inkscape-font-specification:Symbol">y</tspan></text>
    <text
       xml:space="preserve"
       style="font-size:40px;font-style:normal;font-weight:normal;line-height:125%;letter-spacing:0px;word-spacing:0px;fill:#000000;fill-opacity:1;stroke:none;font-family:Sans"
       x="9.2857132"
       y="723.79077"
       id="text4075"
       sodipodi:linespacing="125%"><tspan
         sodipodi:role="line"
         id="tspan4077"
         x="9.2857132"
         y="723.79077"
         style="font-size:20px;font-style:normal;font-variant:normal;font-weight:normal;font-stretch:normal;font-family:Symbol;-inkscape-font-specification:Symbol">z</tspan></text>
  </g>
</svg>
